<svg width="4268" height="424" viewBox="0 0 4268 424" fill="none" xmlns="http://www.w3.org/2000/svg">
<g clip-path="url(#clip0_339_2)">
<path d="M48.0539 87.5983V0H87.5919V87.5983H48.0539ZM144.162 87.5983V0H183.7V87.5983H144.162ZM192.216 0H231.754V87.5983H192.216V0ZM0 0H39.538V87.5983H0V0ZM135.646 87.5983H96.1078V0H135.646V87.5983ZM279.807 87.5983H240.269V0H279.807V87.5983ZM288.323 87.5983V0H327.861V87.5983H288.323ZM144.162 135.656V96.1148H183.7V135.656H144.162ZM144.162 327.885V288.344H183.7V327.885H144.162ZM144.162 424V384.459H183.7V424H144.162ZM144.162 183.713V144.172H183.7V183.713H144.162ZM144.162 375.943V336.402H183.7V375.943H144.162ZM183.7 231.77H144.162V192.23H183.7V231.77ZM144.162 279.828V240.287H183.7V279.828H144.162Z" fill="black"/>
<path d="M678.063 144.172H717.601V231.77H678.063V144.172ZM525.385 231.77H485.847V144.172H525.385V231.77ZM573.439 231.77H533.901V144.172H573.439V231.77ZM437.793 144.172H477.331V231.77H437.793V144.172ZM630.009 144.172H669.547V231.77H630.009V144.172ZM726.117 144.172H765.655V231.77H726.117V144.172ZM581.955 231.77V144.172H621.493V231.77H581.955ZM726.117 375.943V336.402H765.655V375.943H726.117ZM765.655 327.885H726.117V288.344H765.655V327.885ZM726.117 135.656V96.1148H765.655V135.656H726.117ZM726.117 424V384.459H765.655V424H726.117ZM726.117 87.5983V48.0574H765.655V87.5983H726.117ZM726.117 279.828V240.287H765.655V279.828H726.117ZM437.793 336.402H477.331V375.943H437.793V336.402ZM437.793 384.459H477.331V424H437.793V384.459ZM437.793 39.5409V0H477.331V39.5409H437.793ZM765.655 39.5409H726.117V0H765.655V39.5409ZM477.331 279.828H437.793V240.287H477.331V279.828ZM437.793 288.344H477.331V327.885H437.793V288.344ZM437.793 135.656V96.1148H477.331V135.656H437.793ZM477.331 87.5983H437.793V48.0574H477.331V87.5983Z" fill="black"/>
<path d="M1067.8 0H1107.34V87.5983H1067.8V0ZM1107.34 424H1067.8V336.402H1107.34V424ZM875.586 87.5983V0H915.124V87.5983H875.586ZM923.64 87.5983V0H963.178V87.5983H923.64ZM1115.86 0H1155.39V87.5983H1115.86V0ZM1155.39 424H1115.86V336.402H1155.39V424ZM1059.29 87.5983H1019.75V0H1059.29V87.5983ZM1163.91 336.402H1203.45V424H1163.91V336.402ZM923.64 424V336.402H963.178V424H923.64ZM971.694 87.5983V0H1011.23V87.5983H971.694ZM1019.75 424V336.402H1059.29V424H1019.75ZM875.586 424V336.402H915.124V424H875.586ZM971.694 336.402H1011.23V424H971.694V336.402ZM1163.91 0H1203.45V87.5983H1163.91V0ZM1019.75 231.77V192.23H1059.29V231.77H1019.75ZM1115.86 192.23H1155.39V231.77H1115.86V192.23ZM1107.34 231.77H1067.8V192.23H1107.34V231.77ZM875.586 144.172H915.124V183.713H875.586V144.172ZM971.694 231.77V192.23H1011.23V231.77H971.694ZM875.586 231.77V192.23H915.124V231.77H875.586ZM875.586 288.344H915.124V327.885H875.586V288.344ZM875.586 240.287H915.124V279.828H875.586V240.287ZM963.178 231.77H923.64V192.23H963.178V231.77ZM875.586 135.656V96.1148H915.124V135.656H875.586Z" fill="black"/>
<path d="M1799.23 424V336.402H1838.76V424H1799.23ZM1751.17 424V336.402H1790.71V424H1751.17ZM1799.23 87.5983V0H1838.76V87.5983H1799.23ZM1991.44 336.402H2030.98V424H1991.44V336.402ZM1847.28 0H1886.82V87.5983H1847.28V0ZM1943.39 0H1982.93V87.5983H1943.39V0ZM1934.87 424H1895.33V336.402H1934.87V424ZM1886.82 424H1847.28V336.402H1886.82V424ZM1943.39 336.402H1982.93V424H1943.39V336.402ZM1790.71 87.5983H1751.17V0H1790.71V87.5983ZM1895.33 87.5983V0H1934.87V87.5983H1895.33ZM1991.44 135.656V96.1148H2030.98V135.656H1991.44ZM1943.39 192.23H1982.93V231.77H1943.39V192.23ZM1991.44 192.23H2030.98V231.77H1991.44V192.23ZM2039.5 327.885V288.344H2079.03V327.885H2039.5ZM2079.03 279.828H2039.5V240.287H2079.03V279.828ZM1990.83 183.713V144.172H2030.37V183.713H1990.83ZM1790.71 183.713H1751.17V144.172H1790.71V183.713ZM1751.17 279.828V240.287H1790.71V279.828H1751.17ZM1751.17 192.23H1790.71V231.77H1751.17V192.23ZM1934.87 231.77H1895.33V192.23H1934.87V231.77ZM1751.17 327.885V288.344H1790.71V327.885H1751.17ZM1886.82 231.77H1847.28V192.23H1886.82V231.77ZM1790.71 135.656H1751.17V96.1148H1790.71V135.656ZM1799.23 192.23H1838.76V231.77H1799.23V192.23Z" fill="black"/>
<path d="M2429.24 336.402H2468.77V424H2429.24V336.402ZM2276.56 424H2237.02V336.402H2276.56V424ZM2285.07 424V336.402H2324.61V424H2285.07ZM2381.18 336.402H2420.72V424H2381.18V336.402ZM2333.13 424V336.402H2372.67V424H2333.13ZM2477.29 183.713V144.172H2516.83V183.713H2477.29ZM2477.29 327.885V288.344H2516.83V327.885H2477.29ZM2477.29 39.5409V0H2516.83V39.5409H2477.29ZM2477.29 231.77V192.23H2516.83V231.77H2477.29ZM2477.29 135.656V96.1148H2516.83V135.656H2477.29ZM2477.29 279.828V240.287H2516.83V279.828H2477.29ZM2188.97 279.828V240.287H2228.5V279.828H2188.97ZM2188.97 192.23H2228.5V231.77H2188.97V192.23ZM2188.97 144.172H2228.5V183.713H2188.97V144.172ZM2516.83 87.5983H2477.29V48.0574H2516.83V87.5983ZM2188.97 87.5983V48.0574H2228.5V87.5983H2188.97ZM2228.5 135.656H2188.97V96.1148H2228.5V135.656ZM2188.97 39.5409V0H2228.5V39.5409H2188.97ZM2188.97 327.885V288.344H2228.5V327.885H2188.97Z" fill="black"/>
<path d="M2858.51 424H2818.97V336.402H2858.51V424ZM2770.92 87.5983V0H2810.46V87.5983H2770.92ZM2867.03 424V336.402H2906.57V424H2867.03ZM2626.76 424V336.402H2666.3V424H2626.76ZM2626.76 0H2666.3V87.5983H2626.76V0ZM2858.51 87.5983H2818.97V0H2858.51V87.5983ZM2906.57 87.5983H2867.03V0H2906.57V87.5983ZM2915.08 0H2954.62V87.5983H2915.08V0ZM2714.35 87.5983H2674.81V0H2714.35V87.5983ZM2762.4 87.5983H2722.87V0H2762.4V87.5983ZM2762.4 424H2722.87V336.402H2762.4V424ZM2915.08 424V336.402H2954.62V424H2915.08ZM2674.81 424V336.402H2714.35V424H2674.81ZM2770.92 336.402H2810.46V424H2770.92V336.402ZM2810.46 279.828H2770.92V240.287H2810.46V279.828ZM2810.46 231.77H2770.92V192.23H2810.46V231.77ZM2770.92 96.1148H2810.46V135.656H2770.92V96.1148ZM2770.92 288.344H2810.46V327.885H2770.92V288.344ZM2770.92 144.172H2810.46V183.713H2770.92V144.172Z" fill="black"/>
<path d="M3248.25 424H3208.71V336.402H3248.25V424ZM3112.61 336.402H3152.14V424H3112.61V336.402ZM3344.36 424H3304.82V336.402H3344.36V424ZM3256.77 336.402H3296.31V424H3256.77V336.402ZM3064.55 424V336.402H3104.09V424H3064.55ZM3160.66 424V336.402H3200.2V424H3160.66ZM3352.88 424V336.402H3392.41V424H3352.88ZM3064.55 279.828V240.287H3104.09V279.828H3064.55ZM3104.09 87.5983H3064.55V48.0574H3104.09V87.5983ZM3064.55 0H3104.09V39.5409H3064.55V0ZM3104.09 183.713H3064.55V144.172H3104.09V183.713ZM3064.55 327.885V288.344H3104.09V327.885H3064.55ZM3064.55 135.656V96.1148H3104.09V135.656H3064.55ZM3104.09 231.77H3064.55V192.23H3104.09V231.77Z" fill="black"/>
<path d="M3742.61 0H3782.15V87.5983H3742.61V0ZM3598.45 424V336.402H3637.99V424H3598.45ZM3550.4 0H3589.94V87.5983H3550.4V0ZM3502.35 0H3541.88V87.5983H3502.35V0ZM3742.61 424V336.402H3782.15V424H3742.61ZM3550.4 424V336.402H3589.94V424H3550.4ZM3502.35 424V336.402H3541.88V424H3502.35ZM3646.51 336.402H3686.05V424H3646.51V336.402ZM3734.1 87.5983H3694.56V0H3734.1V87.5983ZM3734.1 424H3694.56V336.402H3734.1V424ZM3598.45 87.5983V0H3637.99V87.5983H3598.45ZM3646.51 87.5983V0H3686.05V87.5983H3646.51ZM3790.67 231.77V192.23H3830.21V231.77H3790.67ZM3790.67 327.885V288.344H3830.21V327.885H3790.67ZM3790.67 279.828V240.287H3830.21V279.828H3790.67ZM3502.35 135.656V96.1148H3541.88V135.656H3502.35ZM3790.67 183.713V144.172H3830.21V183.713H3790.67ZM3502.35 231.77V192.23H3541.88V231.77H3502.35ZM3502.35 183.713V144.172H3541.88V183.713H3502.35ZM3502.35 279.828V240.287H3541.88V279.828H3502.35ZM3790.67 135.656V96.1148H3830.21V135.656H3790.67ZM3541.88 327.885H3502.35V288.344H3541.88V327.885Z" fill="black"/>
<path d="M4132.35 424V336.402H4171.89V424H4132.35ZM4036.25 87.5983V0H4075.78V87.5983H4036.25ZM4036.25 336.402H4075.78V424H4036.25V336.402ZM4180.41 424V336.402H4219.95V424H4180.41ZM4180.41 0H4219.95V87.5983H4180.41V0ZM4084.3 424V336.402H4123.84V424H4084.3ZM4084.3 0H4123.84V87.5983H4084.3V0ZM3988.19 87.5983V0H4027.73V87.5983H3988.19ZM3988.19 336.402H4027.73V424H3988.19V336.402ZM4132.35 0H4171.89V87.5983H4132.35V0ZM4084.3 231.77V192.23H4123.84V231.77H4084.3ZM4268 87.5983H4228.46V48.0574H4268V87.5983ZM4268 279.828H4228.46V240.287H4268V279.828ZM4268 327.885H4228.46V288.344H4268V327.885ZM4180.41 192.23H4219.95V231.77H4180.41V192.23ZM3979.68 183.713H3940.14V144.172H3979.68V183.713ZM3979.68 375.943H3940.14V336.402H3979.68V375.943ZM4132.35 192.23H4171.89V231.77H4132.35V192.23ZM3988.19 192.23H4027.73V231.77H3988.19V192.23ZM4036.25 192.23H4075.78V231.77H4036.25V192.23ZM3979.68 135.656H3940.14V96.1148H3979.68V135.656Z" fill="black"/>
</g>
<defs>
<clipPath id="clip0_339_2">
<rect width="4268" height="424" fill="white"/>
</clipPath>
</defs>
</svg>
